<?xml version="1.0" standalone="no"?>
<!DOCTYPE svg PUBLIC "-//W3C//DTD SVG 20010904//EN"
 "http://www.w3.org/TR/2001/REC-SVG-20010904/DTD/svg10.dtd">
<svg version="1.0" xmlns="http://www.w3.org/2000/svg"
 width="260.000000pt" height="260.000000pt" viewBox="0 0 260.000000 260.000000"
 preserveAspectRatio="xMidYMid meet">
<metadata>
Created by potrace 1.11, written by Peter Selinger 2001-2013
</metadata>
<g transform="translate(0.000000,260.000000) scale(0.100000,-0.100000)"
fill="#000000" stroke="none">
<path d="M892 2048 c-12 -24 -37 -70 -55 -103 -19 -33 -73 -132 -122 -220 -48
-88 -99 -180 -113 -205 -13 -25 -92 -169 -175 -320 -83 -151 -161 -295 -175
-320 -13 -25 -37 -67 -52 -95 -15 -27 -39 -70 -52 -95 -14 -25 -44 -80 -67
-123 l-43 -77 247 2 246 3 35 65 c40 73 87 160 129 235 33 58 295 537 335 610
15 28 63 115 107 195 44 80 99 181 123 225 23 44 50 94 60 110 30 51 80 146
80 151 0 2 -109 4 -243 4 l-243 0 -22 -42z"/>
<path d="M1480 2076 c-5 -5 -10 -14 -10 -19 0 -5 -10 -23 -22 -40 -12 -17 -17
-27 -10 -23 7 4 12 2 12 -3 0 -6 -8 -11 -17 -11 -15 -1 -13 -5 8 -23 29 -25
32 -59 6 -63 -9 -1 -15 2 -11 7 3 5 0 9 -7 9 -7 0 -9 3 -6 6 4 4 14 1 23 -7
14 -11 15 -10 12 7 -3 19 -26 43 -42 44 -5 0 -2 -7 5 -17 12 -14 12 -16 -1
-11 -21 7 -41 -22 -29 -44 6 -11 6 -18 0 -18 -5 0 -12 6 -14 13 -3 6 -6 2 -6
-10 -1 -13 -5 -23 -11 -23 -5 0 -10 -4 -10 -9 0 -5 -18 -41 -41 -80 -23 -40
-38 -78 -35 -87 3 -8 2 -12 -3 -9 -12 7 -41 -34 -41 -57 0 -10 -4 -18 -9 -18
-20 0 -21 -33 -1 -47 16 -12 18 -18 9 -34 -8 -16 -13 -18 -25 -8 -8 6 -14 16
-14 22 0 6 6 2 14 -9 14 -18 15 -18 13 3 -2 29 -24 37 -37 14 -7 -14 -6 -22 5
-31 8 -7 15 -18 14 -24 0 -7 -2 -6 -6 2 -2 6 -10 9 -15 6 -7 -4 -8 -2 -4 4 4
7 2 12 -3 12 -6 0 -11 -4 -11 -10 0 -5 0 -12 0 -15 0 -3 -9 -14 -20 -25 -11
-11 -17 -26 -14 -35 4 -10 0 -15 -10 -15 -12 0 -16 -8 -14 -30 2 -30 12 -39
21 -20 3 6 4 5 3 -2 -2 -7 -9 -13 -17 -13 -8 0 -13 6 -11 13 1 6 -2 12 -8 12
-5 0 -10 -5 -10 -11 0 -6 -10 -25 -22 -42 -16 -23 -17 -28 -5 -18 15 12 17 12
11 -2 -3 -8 -12 -18 -20 -21 -8 -3 -14 -10 -14 -15 0 -6 7 -8 15 -5 9 4 15 0
15 -10 0 -10 6 -13 15 -10 12 5 13 9 4 20 -7 8 -10 16 -8 19 3 2 10 -5 17 -15
10 -16 9 -21 -8 -30 -16 -8 -22 -8 -26 4 -4 11 -16 14 -42 7 -1 -1 3 -7 10
-15 7 -8 15 -12 18 -11 3 2 7 -6 7 -17 2 -21 2 -21 -13 1 -21 29 -28 27 -47
-15 -12 -24 -14 -40 -8 -53 7 -13 5 -22 -10 -34 -10 -9 -19 -13 -19 -7 0 5 7
13 15 17 9 5 11 13 6 22 -7 11 -13 7 -25 -17 -10 -20 -12 -33 -6 -37 6 -4 8
-11 5 -16 -4 -5 -2 -9 4 -9 5 0 12 5 14 10 3 6 4 5 3 -2 -2 -7 -9 -13 -17 -13
-8 0 -13 6 -12 13 5 20 -15 14 -22 -7 -3 -11 -17 -36 -30 -55 -13 -20 -22 -36
-20 -36 3 0 -6 -18 -19 -39 -14 -21 -22 -41 -19 -45 3 -3 -2 -9 -11 -12 -14
-5 -15 -9 -4 -15 10 -7 9 -9 -4 -9 -10 0 -18 -5 -18 -11 0 -7 -13 -34 -30 -60
-16 -27 -25 -49 -20 -49 6 0 10 -4 10 -10 0 -5 -8 -6 -17 -3 -15 6 -16 4 -5
-9 10 -12 10 -18 1 -23 -8 -6 -7 -10 5 -17 9 -5 14 -13 11 -19 -4 -5 0 -9 8
-9 8 0 26 -9 40 -20 l26 -21 -2 21 c-1 11 -7 20 -14 20 -7 0 -13 5 -13 10 0
20 36 -8 37 -28 2 -24 -31 -57 -47 -47 -5 3 -8 11 -5 16 4 5 -3 9 -13 9 -11 0
-26 7 -33 17 -13 14 -12 15 6 5 11 -6 28 -13 38 -16 10 -3 15 -11 11 -17 -4
-7 -2 -10 5 -8 22 8 16 24 -14 39 -16 8 -31 20 -33 25 -2 6 -10 14 -18 18 -12
7 -13 12 -3 23 7 8 7 14 1 14 -15 0 -24 -31 -12 -45 9 -11 7 -12 -9 -8 -16 4
-21 1 -21 -15 0 -11 -4 -22 -8 -24 -14 -6 -63 -98 -52 -98 5 0 10 6 10 13 0 8
3 8 8 1 4 -6 19 -10 35 -10 27 0 35 10 17 21 -6 3 -10 12 -9 18 0 9 2 8 6 -1
2 -6 9 -10 14 -6 5 3 9 2 8 -3 -3 -20 2 -29 21 -30 11 -1 20 4 20 10 0 8 3 9
8 2 9 -15 215 -15 224 -1 5 8 8 8 8 1 0 -15 40 -16 40 -2 0 9 2 9 8 0 4 -7 16
-10 27 -8 11 2 23 4 27 4 13 2 48 80 39 86 -5 3 -11 -1 -14 -7 -3 -7 -4 -3 -4
9 1 24 13 31 19 11 2 -6 10 -8 16 -4 16 10 15 27 0 23 -8 -1 -13 8 -13 23 0
15 5 24 13 22 10 -2 12 4 7 20 -4 13 -4 20 0 16 4 -4 9 -19 11 -33 2 -22 0
-24 -12 -14 -11 9 -14 7 -14 -10 0 -55 57 28 158 229 15 30 30 57 35 58 4 2 5
8 1 13 -3 5 0 9 6 9 6 0 8 5 5 10 -3 6 -1 10 6 10 9 0 9 3 0 14 -9 11 -9 16 0
22 8 4 9 3 5 -4 -4 -7 -3 -12 2 -12 17 0 21 28 7 47 -8 10 -14 23 -14 28 0 6
4 2 10 -8 6 -9 15 -14 21 -11 7 4 8 2 4 -4 -4 -7 -5 -12 -2 -12 9 0 37 60 29
60 -5 0 -2 4 6 9 8 5 9 11 3 15 -6 3 -19 -9 -31 -27 -11 -17 -21 -28 -21 -24
0 19 42 66 54 61 8 -3 17 0 22 7 5 8 3 10 -7 4 -8 -4 -4 2 9 14 12 12 22 33
22 46 0 16 6 25 16 25 8 0 12 5 9 10 -4 6 -16 8 -28 5 -17 -5 -19 -4 -7 4 8 6
24 8 35 4 l20 -6 -20 23 c-11 13 -14 20 -7 16 6 -4 12 -2 12 3 0 6 5 11 11 11
12 0 29 17 47 49 8 13 9 20 3 16 -6 -3 -11 -1 -11 4 0 6 7 11 16 11 13 0 14 3
5 14 -19 23 0 52 31 47 12 -2 39 57 29 63 -5 3 -12 -5 -15 -19 -6 -24 -26 -36
-26 -15 0 6 4 10 9 10 5 0 11 9 14 20 3 12 11 18 19 15 17 -7 102 151 91 168
-3 6 -1 7 5 3 6 -3 16 3 22 14 6 11 7 20 3 20 -4 0 0 5 10 11 9 5 17 19 17 29
0 11 5 20 12 20 9 0 9 3 0 12 -7 7 -12 17 -12 23 0 5 4 4 9 -4 11 -17 31 -6
31 16 0 9 8 26 18 37 16 20 16 20 -3 7 -11 -8 -7 -2 8 13 22 22 26 31 16 42
-6 8 -8 14 -3 14 5 0 -4 9 -21 20 -25 16 -26 19 -8 17 12 0 20 -4 17 -8 -2 -4
3 -10 12 -13 8 -3 12 -10 9 -16 -3 -5 -2 -10 3 -10 10 0 26 29 24 43 -1 4 2 7
7 7 10 0 21 36 13 44 -3 3 -10 -4 -16 -17 -12 -23 -43 -31 -39 -9 3 14 -13 16
-20 2 -3 -6 -4 -5 -3 2 2 7 9 13 17 13 8 0 13 -6 12 -12 -5 -22 17 -14 26 9 5
13 17 23 27 23 11 0 18 6 16 13 -1 6 2 12 8 12 5 0 14 8 19 18 9 17 6 19 -25
20 -20 1 -32 -3 -29 -8 3 -6 1 -10 -4 -10 -6 0 -11 4 -11 8 0 18 -38 9 -49
-11 -10 -21 -11 -21 -6 -1 5 18 0 20 -45 21 -56 2 -62 -3 -24 -18 15 -5 24
-12 22 -15 -7 -7 -58 17 -58 28 0 4 -7 8 -15 8 -8 0 -15 -7 -15 -16 0 -8 5
-12 10 -9 6 3 13 -1 16 -9 3 -9 10 -13 15 -10 5 3 6 -3 2 -13 -6 -16 -5 -16
10 -4 10 8 19 12 22 10 2 -3 -5 -10 -16 -17 -17 -11 -21 -9 -31 13 -6 13 -15
22 -20 19 -5 -3 -12 3 -15 14 -4 18 -13 19 -104 19 -54 -1 -103 -5 -109 -11z
m48 -21 c-3 -3 -9 2 -12 12 -6 14 -5 15 5 6 7 -7 10 -15 7 -18z m39 19 c-3 -3
-12 -4 -19 -1 -8 3 -5 6 6 6 11 1 17 -2 13 -5z m90 0 c-3 -3 -12 -4 -19 -1 -8
3 -5 6 6 6 11 1 17 -2 13 -5z m160 0 c-3 -3 -12 -4 -19 -1 -8 3 -5 6 6 6 11 1
17 -2 13 -5z m104 -21 c-12 -20 -14 -14 -5 12 4 9 9 14 11 11 3 -2 0 -13 -6
-23z m-424 -23 c-12 -17 -16 -18 -20 -6 -4 9 -1 15 5 13 6 -1 13 4 16 12 3 9
0 11 -8 6 -9 -6 -11 -4 -5 4 5 9 11 9 17 3 7 -7 5 -17 -5 -32z m128 30 c4 -7
-2 -9 -19 -4 -32 8 -34 -3 -3 -16 22 -9 22 -9 1 -9 -21 -1 -39 21 -27 33 10
10 41 7 48 -4z m72 -25 c-1 -1 -10 -6 -19 -13 -14 -11 -18 -10 -28 7 -7 14 -7
21 0 21 5 0 10 -7 10 -16 0 -8 5 -12 10 -9 6 4 8 16 4 28 -6 22 -6 22 9 2 9
-11 15 -20 14 -20z m168 14 c-3 -8 -14 -20 -25 -27 -16 -10 -21 -9 -30 8 -7
14 -7 20 0 20 5 0 10 -8 11 -17 0 -14 5 -12 21 9 22 29 33 31 23 7z m15 -26
c-11 -17 -11 -17 -6 0 3 10 6 24 7 30 0 9 2 9 5 0 3 -7 0 -20 -6 -30z m-330 7
c-9 -16 -40 -19 -40 -3 0 3 7 3 15 -1 9 -3 15 0 15 9 0 8 5 15 10 15 7 0 7 -6
0 -20z m12 -23 c-7 -8 -9 -17 -5 -20 11 -11 23 -8 21 6 -2 7 7 12 22 12 15 0
24 -5 23 -12 -2 -7 2 -13 8 -13 7 0 9 10 5 28 -5 22 -4 24 5 9 13 -22 4 -51
-14 -44 -6 2 -11 10 -9 16 1 6 -7 11 -19 11 -11 0 -18 -4 -14 -9 9 -15 -15
-24 -30 -11 -11 9 -12 16 -2 30 6 11 13 17 16 15 2 -3 -1 -11 -7 -18z m163
-26 c-14 -14 -39 -6 -30 10 4 5 2 9 -4 9 -5 0 -12 -5 -14 -10 -3 -6 -4 -5 -3
2 2 7 9 13 17 13 8 0 13 -6 12 -12 -3 -15 13 -17 22 -4 3 5 1 12 -5 16 -5 3
-10 11 -10 18 0 6 6 2 14 -9 12 -16 13 -21 1 -33z m81 3 c-7 -18 -32 -13 -28
5 3 14 -15 15 -21 1 -3 -6 -4 -5 -3 2 2 7 9 13 17 13 8 0 13 -6 12 -12 -2 -7
2 -13 8 -13 7 0 9 10 5 28 -5 22 -4 24 5 9 6 -10 8 -25 5 -33z m-339 14 c-3
-8 -6 -5 -6 6 -1 11 2 17 5 13 3 -3 4 -12 1 -19z m59 -6 c1 -7 0 -8 -3 -2 -2
5 -9 10 -14 10 -6 0 -7 -5 -4 -11 4 -6 -3 -13 -15 -16 -16 -4 -18 -8 -8 -14 7
-5 9 -9 3 -9 -5 0 -17 4 -24 9 -12 8 -9 11 12 16 14 4 26 10 25 14 -3 24 23
27 28 3z m29 -32 c3 -6 -1 -7 -9 -4 -18 7 -21 14 -7 14 6 0 13 -4 16 -10z
m105 0 c-8 -5 -19 -10 -25 -10 -5 0 -3 5 5 10 8 5 20 10 25 10 6 0 3 -5 -5
-10z m80 0 c-8 -5 -19 -10 -25 -10 -5 0 -3 5 5 10 8 5 20 10 25 10 6 0 3 -5
-5 -10z m20 -13 c-8 -7 -16 -20 -18 -30 -3 -15 0 -16 17 -5 11 6 19 17 18 22
-3 19 39 18 54 -1 7 -10 9 -15 5 -11 -5 4 -15 3 -22 -2 -6 -6 -16 -10 -20 -9
-20 3 -35 -2 -30 -10 4 -5 -1 -8 -10 -7 -29 4 -35 30 -11 52 12 12 24 19 27
17 3 -3 -2 -10 -10 -16z m-133 -9 c18 -15 -1 -45 -28 -43 -21 1 -46 31 -35 42
3 4 6 1 6 -6 0 -7 4 -9 10 -6 5 3 7 0 5 -7 -4 -9 2 -14 14 -14 12 0 19 7 18
18 -1 10 -9 18 -19 18 -9 0 -19 4 -22 9 -7 11 34 2 51 -11z m-80 -18 c2 -18 1
-21 -6 -10 -5 8 -7 18 -5 22 3 4 -3 8 -13 8 -11 0 -19 -8 -20 -19 -1 -14 3
-18 15 -14 15 4 15 3 2 -6 -21 -15 -45 16 -28 36 18 22 51 12 55 -17z m159 3
c2 -12 -1 -25 -6 -28 -5 -3 -7 -12 -4 -20 4 -8 9 -13 13 -11 4 3 13 0 21 -5
11 -7 9 -8 -8 -6 -25 4 -44 25 -35 40 3 4 -3 7 -13 5 -18 -3 -27 23 -16 45 8
17 45 2 48 -20z m-286 -33 c6 -11 7 -20 3 -20 -4 0 0 -5 10 -11 9 -5 17 -15
17 -20 0 -15 -34 21 -36 39 -2 8 -9 19 -16 23 -9 6 -10 9 -1 9 7 0 17 -9 23
-20z m430 7 c0 -5 -7 -7 -15 -3 -9 3 -15 0 -15 -9 0 -8 -5 -15 -10 -15 -7 0
-7 6 -1 18 10 19 41 26 41 9z m-63 -16 c-2 -10 -10 -25 -19 -34 -14 -15 -15
-14 -15 11 0 15 2 21 4 15 5 -14 24 -18 22 -5 -2 14 1 32 6 32 3 0 4 -8 2 -19z
m-313 -6 c-19 -15 -19 -16 1 -13 11 2 24 8 28 13 5 6 7 4 5 -4 -6 -21 -44 -23
-59 -4 -8 10 -9 14 -2 10 6 -4 14 -3 18 3 3 5 11 10 18 10 6 0 2 -7 -9 -15z
m66 -2 c0 -9 3 -13 6 -10 4 3 16 1 28 -5 11 -7 24 -11 29 -10 4 1 7 -2 7 -8 0
-14 -11 -12 -34 5 -10 8 -23 12 -27 9 -4 -2 -13 5 -19 16 -7 13 -7 20 0 20 5
0 10 -7 10 -17z m35 7 c3 -6 -1 -7 -9 -4 -18 7 -21 14 -7 14 6 0 13 -4 16 -10z
m75 6 c0 -2 -7 -7 -16 -10 -8 -3 -12 -2 -9 4 6 10 25 14 25 6z m85 -6 c3 -6
-1 -7 -9 -4 -18 7 -21 14 -7 14 6 0 13 -4 16 -10z m-125 -10 c0 -5 -4 -10 -10
-10 -5 0 -10 5 -10 10 0 6 5 10 10 10 6 0 10 -4 10 -10z m58 -2 c-2 -6 -15
-13 -29 -15 -18 -2 -20 -1 -9 6 8 5 18 7 22 5 4 -3 8 0 8 5 0 6 3 11 6 11 3 0
4 -5 2 -12z m132 -23 c-9 -10 -9 -15 -1 -15 6 0 11 -5 11 -10 0 -6 -8 -5 -19
2 -18 11 -18 13 -3 25 23 17 27 16 12 -2z m-393 -1 c-3 -3 -12 -4 -19 -1 -8 3
-5 6 6 6 11 1 17 -2 13 -5z m120 0 c-3 -4 -2 -16 4 -28 10 -20 10 -20 -5 -2
-19 24 -20 36 -4 36 6 0 8 -3 5 -6z m-102 -13 c-6 -5 -17 -11 -25 -13 -8 -2
-20 -11 -26 -22 -10 -17 -12 -17 -17 -2 -4 10 -3 15 2 12 5 -3 12 1 15 10 3 8
9 13 14 10 4 -2 14 -1 22 5 19 11 27 12 15 0z m67 2 c-6 -2 -10 -9 -7 -14 4
-5 -1 -6 -9 -3 -12 4 -14 0 -10 -21 3 -17 1 -24 -6 -20 -23 14 5 66 35 64 6 0
4 -3 -3 -6z m79 -4 c11 -5 17 -14 14 -20 -4 -5 3 -9 15 -9 12 0 19 4 15 9 -6
11 33 36 43 27 3 -3 0 -6 -7 -6 -7 0 -9 -4 -6 -10 3 -6 -1 -7 -10 -4 -10 4
-15 2 -13 -7 2 -9 -6 -14 -22 -14 -16 0 -24 5 -22 14 2 9 -3 11 -13 7 -9 -3
-14 -2 -10 3 3 5 -1 12 -7 14 -7 3 -9 6 -5 6 5 1 17 -4 28 -10z m158 1 c17 -9
24 -50 9 -50 -5 0 -12 0 -18 0 -5 0 -10 5 -10 11 0 8 4 8 14 -1 12 -9 15 -8
13 9 -1 14 -6 20 -15 16 -7 -2 -11 -1 -7 4 3 5 -1 12 -7 14 -7 3 -9 6 -5 6 5
1 16 -3 26 -9z m-34 -10 c8 -13 -14 -52 -26 -45 -5 4 -9 2 -9 -4 0 -15 18 -23
25 -11 3 5 11 10 18 10 6 0 2 -6 -9 -14 -13 -10 -23 -11 -31 -4 -9 7 -13 7
-13 -2 0 -8 -3 -11 -6 -8 -8 9 16 49 25 43 10 -6 24 25 16 34 -3 3 -10 -1 -15
-9 -6 -8 -10 -10 -10 -4 0 22 24 32 35 14z m-255 -8 c0 -5 -6 -17 -14 -28 -14
-19 -15 -18 -13 3 0 12 5 19 9 17 4 -3 8 0 8 5 0 6 2 11 5 11 3 0 5 -4 5 -8z
m92 -26 c4 3 12 -4 18 -16 6 -12 9 -24 7 -27 -3 -2 -8 5 -12 16 -3 12 -10 19
-15 16 -9 -5 -30 25 -30 42 1 4 6 -2 13 -15 7 -12 16 -20 19 -16z m36 -11 c-3
-3 -9 2 -12 12 -6 14 -5 15 5 6 7 -7 10 -15 7 -18z m70 3 c-7 -13 -11 -27 -10
-31 3 -11 -26 -20 -43 -13 -13 4 -14 10 -5 26 6 11 15 20 21 20 6 0 3 -7 -5
-16 -21 -20 -20 -24 4 -24 11 0 19 3 18 8 -3 8 20 52 28 52 2 0 -1 -10 -8 -22z
m-288 2 c0 -5 -2 -10 -4 -10 -3 0 -8 5 -11 10 -3 6 -1 10 4 10 6 0 11 -4 11
-10z m411 -13 c-10 -9 -11 -8 -5 6 3 10 9 15 12 12 3 -3 0 -11 -7 -18z m-387
-11 c-10 -8 -21 -12 -24 -10 -5 6 21 24 34 24 6 0 1 -6 -10 -14z m140 8 c9 -3
16 -11 16 -17 0 -7 -4 -7 -12 1 -17 17 -33 15 -18 -3 9 -10 9 -15 1 -15 -6 0
-11 5 -11 10 0 6 -8 10 -17 11 -18 0 -16 2 24 18 1 1 8 -2 17 -5z m-110 -19
c-10 -8 -23 -14 -29 -14 -5 0 -1 6 9 14 11 8 24 15 30 15 5 0 1 -7 -10 -15z
m320 0 c-10 -8 -23 -14 -29 -14 -5 0 -1 6 9 14 11 8 24 15 30 15 5 0 1 -7 -10
-15z m-274 -5 c0 -5 -4 -10 -10 -10 -5 0 -10 5 -10 10 0 6 5 10 10 10 6 0 10
-4 10 -10z m320 0 c0 -5 -4 -10 -10 -10 -5 0 -10 5 -10 10 0 6 5 10 10 10 6 0
10 -4 10 -10z m-417 -14 c9 -7 17 -17 17 -21 0 -5 -8 -1 -17 7 -10 9 -27 18
-38 21 l-20 5 20 1 c11 0 28 -6 38 -13z m55 -10 c-7 -8 -15 -12 -17 -11 -5 6
10 25 20 25 5 0 4 -6 -3 -14z m77 3 c11 -16 1 -19 -13 -3 -7 8 -8 14 -3 14 5
0 13 -5 16 -11z m49 -3 c-10 -8 -21 -12 -24 -10 -5 6 21 24 34 24 6 0 1 -6
-10 -14z m51 -4 c-3 -3 -11 0 -18 7 -9 10 -8 11 6 5 10 -3 15 -9 12 -12z m85
8 c0 -5 -4 -10 -10 -10 -5 0 -10 5 -10 10 0 6 5 10 10 10 6 0 10 -4 10 -10z
m58 -4 c-7 -8 -15 -12 -17 -11 -5 6 10 25 20 25 5 0 4 -6 -3 -14z m-294 -10
c-10 -8 -21 -12 -24 -10 -5 6 21 24 34 24 6 0 1 -6 -10 -14z m247 -13 c-12
-20 -14 -14 -5 12 4 9 9 14 11 11 3 -2 0 -13 -6 -23z m-335 5 c5 -8 2 -9 -10
-5 -15 6 -17 3 -13 -15 3 -13 1 -32 -4 -43 -7 -16 -8 -14 -4 9 6 26 4 28 -9
17 -11 -9 -16 -10 -16 -2 0 6 4 11 9 11 5 0 11 9 14 20 6 22 22 26 33 8z m114
-8 c-24 -15 -36 -11 -14 4 10 8 21 12 24 10 2 -3 -2 -9 -10 -14z m106 6 c3 -8
1 -23 -5 -33 -9 -15 -10 -13 -5 10 4 17 2 27 -6 27 -6 0 -9 -4 -6 -9 6 -10
-43 -46 -51 -38 -3 3 8 12 24 21 15 8 24 15 20 16 -12 0 2 20 14 20 5 0 12 -6
15 -14z m82 1 c7 -8 6 -18 -4 -31 -8 -11 -14 -15 -14 -9 0 7 5 15 10 18 6 4 8
11 5 16 -9 13 -25 11 -22 -3 1 -7 -4 -13 -12 -13 -8 0 -15 6 -17 13 -1 7 0 8
3 2 5 -12 24 -14 22 -2 -4 24 12 30 29 9z m102 9 c0 -3 -4 -8 -10 -11 -5 -3
-10 -1 -10 4 0 6 5 11 10 11 6 0 10 -2 10 -4z m-345 -27 c16 -7 14 -8 -9 -4
-26 6 -28 4 -17 -9 9 -11 10 -16 2 -16 -6 0 -11 5 -11 10 0 6 -8 10 -17 11
-15 0 -15 2 2 9 25 11 26 11 50 -1z m95 1 c-8 -5 -22 -9 -30 -9 -10 0 -8 3 5
9 27 12 43 12 25 0z m210 1 c0 -8 -26 -22 -40 -22 -3 0 -10 -10 -17 -22 -7
-12 -12 -18 -13 -14 0 17 21 47 31 42 5 -4 12 1 15 9 7 17 24 22 24 7z m-260
-21 c0 -5 -4 -10 -10 -10 -5 0 -10 5 -10 10 0 6 5 10 10 10 6 0 10 -4 10 -10z
m164 -22 c-6 -10 -24 -11 -23 0 3 19 -2 26 -10 13 -6 -9 -5 -21 1 -31 13 -20
3 -54 -12 -45 -5 3 -10 2 -10 -4 0 -5 5 -12 10 -14 6 -3 5 -4 -2 -3 -16 3 -20
46 -6 64 6 6 7 12 4 12 -4 0 -2 9 4 20 9 17 14 18 30 8 10 -7 16 -16 14 -20z
m-351 -5 c-6 -16 -5 -16 10 -4 9 7 17 9 17 3 0 -14 -28 -23 -35 -12 -4 6 -3
15 0 20 10 16 15 11 8 -7z m103 0 c7 -10 14 -26 14 -36 0 -10 5 -15 10 -12 6
3 13 -1 16 -9 3 -9 10 -13 15 -10 5 3 6 -3 3 -13 -5 -16 -4 -16 10 1 9 11 16
15 16 9 0 -6 -6 -16 -14 -22 -12 -10 -17 -7 -29 16 -9 15 -19 27 -24 25 -4 -2
-10 5 -12 15 -1 10 -10 26 -19 36 -8 9 -12 17 -7 17 4 0 14 -8 21 -17z m56 -3
c-2 -8 3 -10 13 -6 9 3 13 2 10 -4 -3 -6 0 -11 7 -11 15 -1 31 -5 38 -8 3 -2
13 -4 23 -6 23 -4 38 -18 17 -14 -8 1 -23 -1 -32 -5 -21 -9 -52 0 -44 12 3 5
-6 14 -20 21 -14 6 -22 16 -18 22 4 8 -1 9 -17 4 -19 -5 -21 -4 -9 4 18 13 36
8 32 -9z m52 5 c-4 -8 -8 -15 -10 -15 -2 0 -4 7 -4 15 0 8 4 15 10 15 5 0 7
-7 4 -15z m69 0 c4 -8 3 -16 -2 -19 -14 -9 -45 1 -49 15 -2 8 0 10 5 4 4 -5
17 -12 27 -13 17 -3 18 -2 7 12 -8 9 -9 16 -3 16 5 0 12 -7 15 -15z m149 -9
c7 4 8 2 4 -5 -9 -13 -26 -5 -25 12 0 9 2 8 6 -1 2 -6 10 -9 15 -6z m-342 -11
c11 -13 10 -14 -4 -9 -9 3 -16 10 -16 15 0 13 6 11 20 -6z m280 6 c0 -5 -7
-12 -16 -15 -14 -5 -15 -4 -4 9 14 17 20 19 20 6z m-190 -38 c0 -7 -39 17 -46
28 -3 6 5 3 20 -6 14 -10 26 -19 26 -22z m-191 1 c-6 -8 -17 -14 -23 -14 -6 0
-3 5 7 11 9 6 14 15 11 21 -4 7 -2 8 5 4 9 -6 9 -11 0 -22z m76 16 c13 -6 15
-9 5 -9 -8 0 -22 4 -30 9 -18 12 -2 12 25 0z m335 0 c-8 -5 -22 -9 -30 -9 -10
0 -8 3 5 9 27 12 43 12 25 0z m-353 -26 c-7 -7 -37 7 -37 17 0 6 9 5 21 -1 11
-7 19 -14 16 -16z m61 -6 c11 -14 10 -18 -7 -27 -17 -9 -22 -8 -31 9 -7 13 -7
20 0 20 5 0 10 -7 10 -15 0 -9 6 -12 16 -8 11 4 12 9 5 16 -6 6 -11 15 -11 21
0 5 1 7 3 5 1 -2 8 -12 15 -21z m233 -1 c-10 -9 -11 -8 -5 6 3 10 9 15 12 12
3 -3 0 -11 -7 -18z m74 13 c-3 -5 -11 -10 -16 -10 -6 0 -7 5 -4 10 3 6 11 10
16 10 6 0 7 -4 4 -10z m-415 -20 c-8 -5 -19 -10 -25 -10 -5 0 -3 5 5 10 8 5
20 10 25 10 6 0 3 -5 -5 -10z m246 -5 c-11 -8 -26 -15 -34 -15 -7 0 -10 -5 -7
-10 3 -6 -1 -13 -10 -16 -14 -6 -14 -8 1 -25 16 -18 11 -45 -7 -34 -5 4 -8 -4
-6 -17 1 -15 -3 -22 -12 -20 -9 2 -11 -3 -7 -13 3 -9 2 -14 -3 -11 -5 3 -12
-1 -15 -10 -3 -8 -10 -12 -16 -9 -5 3 -10 -2 -10 -12 0 -11 -5 -24 -11 -30
-13 -13 -39 -6 -39 9 0 6 6 5 15 -2 12 -10 16 -9 20 4 3 9 7 23 10 32 3 8 9
13 13 10 5 -3 14 6 21 20 6 14 16 22 21 19 6 -4 9 4 7 17 -1 14 3 22 11 21 17
-4 15 12 -3 27 -19 16 -19 30 1 30 8 0 12 4 9 10 -3 5 9 16 27 24 43 19 47 19
24 1z m38 0 c3 -9 -3 -19 -14 -25 -14 -7 -20 -7 -20 0 0 5 7 10 15 10 9 0 12
6 9 15 -4 8 -4 15 -1 15 3 0 7 -7 11 -15z m96 5 c0 -5 -4 -10 -10 -10 -5 0
-10 5 -10 10 0 6 5 10 10 10 6 0 10 -4 10 -10z m-355 -13 c-11 -7 -21 -20 -23
-31 -2 -12 1 -16 9 -10 8 4 10 3 5 -5 -11 -17 -26 -3 -23 20 3 21 23 39 42 38
6 0 1 -5 -10 -12z m41 -43 c-6 -16 -29 -15 -26 0 1 5 -4 13 -12 18 -10 8 -10
9 2 5 8 -2 14 -10 13 -16 -2 -6 2 -11 8 -11 7 0 9 10 5 28 -5 22 -4 24 5 9 6
-10 8 -25 5 -33z m79 -3 c-14 -14 -39 -6 -30 10 4 5 2 9 -4 9 -5 0 -12 -5 -14
-10 -3 -6 -4 -5 -3 2 2 7 9 13 17 13 8 0 13 -6 12 -12 -3 -15 13 -17 22 -4 3
5 1 12 -5 16 -5 3 -10 11 -10 18 0 6 6 2 14 -9 12 -16 13 -21 1 -33z m205 38
c0 -5 -4 -8 -9 -4 -5 3 -11 -5 -13 -17 -2 -13 -9 -22 -16 -20 -15 3 -16 -14
-2 -21 6 -3 5 -4 -2 -3 -7 2 -13 9 -13 17 0 8 6 13 13 12 6 -2 12 5 12 15 0
10 3 22 7 25 10 10 23 8 23 -4z m40 -9 c-24 -15 -36 -11 -14 4 10 8 21 12 24
10 2 -3 -2 -9 -10 -14z m-104 -15 c-17 -13 -33 -22 -38 -19 -4 3 -8 1 -8 -5 0
-5 5 -12 10 -14 6 -3 5 -4 -2 -3 -7 2 -13 8 -13 14 0 7 2 11 5 10 3 -2 19 7
35 19 40 30 48 28 11 -2z m-58 -5 c-7 -10 -14 -17 -17 -15 -4 4 18 35 25 35 2
0 -1 -9 -8 -20z m-233 -30 c5 -8 11 -7 21 1 8 6 14 7 14 3 0 -14 -35 -33 -56
-30 -10 2 -20 9 -22 17 -2 8 0 10 5 4 4 -5 17 -11 28 -13 20 -3 20 -2 1 13
-11 8 -15 15 -9 15 7 0 15 -5 18 -10z m95 0 c0 -5 -4 -10 -10 -10 -5 0 -10 5
-10 10 0 6 5 10 10 10 6 0 10 -4 10 -10z m80 0 c0 -5 -4 -10 -10 -10 -5 0 -10
5 -10 10 0 6 5 10 10 10 6 0 10 -4 10 -10z m-244 -39 c-9 -13 -33 -14 -40 -2
-4 5 3 7 14 4 16 -4 19 -2 14 13 -6 15 -4 16 6 7 7 -6 9 -16 6 -22z m140 15
c3 -8 1 -23 -5 -33 -9 -15 -10 -13 -5 10 5 23 4 26 -12 20 -12 -4 -15 -3 -10
5 10 16 25 15 32 -2z m82 1 c7 -8 6 -18 -4 -31 -8 -11 -14 -15 -14 -9 0 7 5
15 10 18 6 4 8 11 5 16 -9 13 -25 11 -22 -3 1 -7 -4 -13 -12 -13 -8 0 -15 6
-17 13 -1 7 0 8 3 2 5 -12 24 -14 22 -2 -4 24 12 30 29 9z m76 -12 c-4 -16 -2
-25 6 -25 6 0 9 4 6 9 -7 10 43 46 51 37 3 -3 -6 -11 -20 -17 -15 -7 -24 -15
-22 -20 3 -4 0 -11 -6 -14 -17 -11 -32 10 -24 34 9 30 17 26 9 -4z m-283 -22
c-12 -20 -14 -14 -5 12 4 9 9 14 11 11 3 -2 0 -13 -6 -23z m99 11 c0 -2 -7 -4
-15 -4 -8 0 -15 4 -15 10 0 5 7 7 15 4 8 -4 15 -8 15 -10z m280 12 c0 -2 -7
-6 -15 -10 -8 -3 -15 -1 -15 4 0 6 7 10 15 10 8 0 15 -2 15 -4z m-329 -17 c11
-5 17 -15 13 -21 -4 -6 2 -8 17 -4 20 6 21 5 6 -4 -20 -13 -41 -4 -31 12 5 8
1 9 -10 5 -9 -4 -15 -3 -11 2 3 5 -1 12 -7 14 -7 3 -9 6 -5 6 5 1 17 -4 28
-10z m126 -24 c1 0 -5 -9 -14 -20 -15 -20 -15 -20 -9 2 4 12 2 24 -4 28 -5 3
-10 -1 -10 -9 0 -9 -5 -16 -10 -16 -7 0 -7 7 0 21 10 17 14 18 28 7 9 -7 18
-12 19 -13z m168 -4 c1 -12 -6 -26 -17 -32 -12 -6 -18 -6 -18 1 0 5 6 10 14
10 16 0 16 31 1 43 -6 5 -4 7 4 5 8 -2 15 -14 16 -27z m-355 -2 c12 -8 10 -9
-7 -4 -19 5 -22 3 -17 -12 5 -14 4 -15 -4 -3 -19 25 0 38 28 19z m280 7 c0 -2
-7 -7 -16 -10 -8 -3 -12 -2 -9 4 6 10 25 14 25 6z m-206 -57 c-3 -5 2 -9 10
-9 9 0 16 -5 16 -10 0 -7 -7 -7 -21 0 -11 7 -18 14 -15 18 3 3 -1 17 -10 31
l-15 26 20 -24 c12 -12 18 -27 15 -32z m-112 17 c5 -10 8 -20 5 -23 -3 -2 -8
5 -12 16 -4 12 -12 18 -21 14 -7 -3 -14 -1 -14 5 0 16 31 7 42 -12z m87 -20
c0 -6 -3 -5 -6 2 -2 6 -9 10 -14 7 -5 -4 -6 1 -3 9 8 21 0 20 -21 -1 -16 -15
-15 -17 11 -28 24 -9 26 -12 11 -18 -11 -4 -16 -3 -12 3 3 6 -1 10 -9 10 -25
0 -28 18 -5 41 21 21 23 21 36 4 7 -11 13 -24 12 -29z m60 28 c-11 -13 -9 -15
17 -9 27 5 28 5 5 -5 -20 -9 -28 -7 -40 6 -9 9 -10 14 -3 10 6 -4 12 -2 12 3
0 6 5 11 11 11 8 0 7 -5 -2 -16z m183 9 c-12 -2 -20 -9 -17 -14 4 -5 -1 -12
-9 -15 -9 -3 -13 -10 -10 -15 3 -5 -3 -6 -13 -2 -15 6 -16 4 -5 -9 15 -19 -3
-38 -33 -34 -22 3 -27 28 -7 32 7 1 8 0 2 -3 -16 -8 -12 -19 9 -20 14 -1 19 4
16 18 -3 13 5 24 23 34 15 8 23 14 19 15 -5 0 -5 5 -2 10 3 6 16 9 28 9 22 -2
22 -2 -1 -6z m-42 -7 c0 -2 -12 -11 -27 -20 l-28 -17 24 20 c23 21 31 25 31
17z m45 -26 c-14 -16 -16 -23 -7 -32 7 -7 12 -17 12 -22 0 -6 -7 0 -16 12 -15
21 -15 25 2 43 9 10 19 19 22 19 3 0 -3 -9 -13 -20z m45 -10 c-8 -5 -18 -6
-22 -4 -4 3 -8 1 -8 -5 0 -5 6 -12 13 -14 9 -4 9 -6 0 -6 -14 -1 -26 16 -19
27 2 4 15 8 28 9 17 2 19 0 8 -7z m-195 -29 c-6 -5 -25 10 -25 20 0 5 6 4 14
-3 8 -7 12 -15 11 -17z m-210 9 c6 10 52 6 63 -5 4 -3 -9 -3 -27 0 -30 5 -33
4 -21 -10 8 -10 9 -15 1 -15 -6 0 -11 4 -11 8 0 5 -7 9 -15 10 -8 1 -22 3 -30
4 -8 1 -12 5 -9 10 3 4 14 4 24 -2 13 -7 21 -7 25 0z m140 -8 c-3 -3 -11 0
-18 7 -9 10 -8 11 6 5 10 -3 15 -9 12 -12z m-19 -16 c3 -8 1 -23 -5 -33 -9
-15 -10 -13 -5 10 5 23 4 26 -12 20 -12 -4 -15 -3 -10 5 10 16 25 15 32 -2z
m78 -1 c11 -8 15 -15 10 -15 -6 0 -19 7 -30 15 -10 8 -14 14 -9 14 6 0 19 -6
29 -14z m46 -17 c0 -19 -16 -5 -17 14 -2 18 0 20 7 8 5 -8 10 -18 10 -22z m96
0 c-1 -12 -9 -24 -17 -26 -8 -2 -10 0 -4 5 6 4 11 17 13 28 3 20 2 20 -13 1
-8 -11 -15 -15 -15 -10 0 15 22 34 31 28 5 -3 7 -15 5 -26z m-365 7 c5 4 6 -2
2 -12 -5 -15 -3 -16 8 -5 7 6 17 12 23 12 5 0 1 -7 -10 -15 -17 -12 -20 -12
-31 2 -7 9 -13 22 -12 27 0 6 3 5 6 -2 2 -6 9 -10 14 -7z m64 -12 c-5 -23 -4
-25 9 -14 11 9 16 10 16 2 0 -6 -5 -11 -11 -11 -5 0 -7 -4 -4 -10 3 -5 2 -10
-3 -10 -6 0 -12 6 -15 14 -6 15 2 56 10 56 3 0 2 -12 -2 -27z m50 -2 c-6 -5
-25 10 -25 20 0 5 6 4 14 -3 8 -7 12 -15 11 -17z m91 2 c-6 -6 -36 9 -36 18 0
5 9 4 20 -3 10 -7 18 -14 16 -15z m110 -8 c10 -8 15 -15 9 -15 -5 0 -3 -5 5
-11 13 -9 13 -10 0 -6 -8 2 -14 10 -12 17 2 8 -3 10 -13 6 -9 -3 -14 -2 -10 3
3 5 -1 12 -7 14 -7 3 -8 6 -2 6 5 1 19 -6 30 -14z m-132 -27 c-4 -13 -2 -18 4
-14 10 6 32 -23 32 -41 -1 -4 -6 2 -13 14 -7 12 -16 22 -22 22 -5 1 -11 7 -11
14 -4 30 -6 30 -20 4 -8 -15 -19 -25 -24 -22 -6 4 -10 2 -10 -4 0 -15 18 -23
25 -11 3 5 11 10 18 10 6 0 2 -6 -9 -14 -16 -12 -21 -13 -33 -1 -13 13 -7 40
8 30 5 -2 13 7 19 20 14 31 46 24 36 -7z m66 12 c7 -14 7 -20 0 -20 -5 0 -10
7 -10 16 0 8 -5 12 -10 9 -6 -4 -8 -16 -5 -28 5 -20 4 -20 -7 1 -9 19 -9 25 3
33 18 11 17 12 29 -11z m-222 -14 c-7 -8 -15 -12 -17 -11 -5 6 10 25 20 25 5
0 4 -6 -3 -14z m80 -6 c-7 -10 -14 -18 -15 -16 -6 6 9 36 18 36 5 0 4 -9 -3
-20z m215 -43 c-4 -6 2 -8 17 -4 16 4 20 3 12 -5 -6 -6 -18 -8 -28 -4 -9 4
-14 9 -10 13 3 3 -1 18 -10 32 l-15 26 20 -24 c12 -12 18 -28 14 -34z m-259
28 c11 -8 15 -15 10 -15 -6 0 -19 7 -30 15 -10 8 -14 14 -9 14 6 0 19 -6 29
-14z m235 -29 c0 -6 -3 -5 -6 2 -2 6 -9 10 -14 7 -5 -4 -6 1 -3 9 8 21 0 20
-21 -1 -16 -15 -15 -17 11 -28 24 -9 26 -12 11 -18 -11 -4 -16 -3 -12 3 3 6
-1 10 -9 10 -25 0 -28 18 -5 41 21 21 23 21 36 4 7 -11 13 -24 12 -29z m51 24
c0 -5 -2 -10 -4 -10 -3 0 -8 5 -11 10 -3 6 -1 10 4 10 6 0 11 -4 11 -10z
m-301 -15 c3 -3 -7 -4 -23 -1 -16 3 -31 8 -35 11 -3 3 7 4 23 1 16 -3 31 -8
35 -11z m-60 -4 c17 -11 25 -48 12 -56 -11 -6 -45 25 -36 33 3 3 12 -3 20 -14
15 -19 15 -19 13 1 -2 11 -12 25 -23 32 -11 7 -15 12 -10 12 6 1 16 -3 24 -8z
m119 -16 c-3 -3 -9 2 -12 12 -6 14 -5 15 5 6 7 -7 10 -15 7 -18z m82 15 c0 -5
-7 -10 -16 -10 -8 0 -13 -4 -10 -8 3 -5 -7 -21 -20 -38 l-26 -29 22 33 c12 17
18 32 13 32 -4 0 1 7 11 15 23 18 26 18 26 5z m-260 -21 c0 -6 -4 -7 -10 -4
-5 3 -10 11 -10 16 0 6 5 7 10 4 6 -3 10 -11 10 -16z m159 -7 c0 -14 -2 -13
-9 3 -8 19 -10 17 -14 -10 0 -5 -5 -11 -11 -12 -5 -1 -13 -12 -17 -25 -7 -22
-7 -22 -5 2 2 15 8 24 16 22 9 -2 11 3 7 14 -4 10 -1 21 6 25 16 10 28 2 27
-19z m-62 -4 c-3 -8 -6 -5 -6 6 -1 11 2 17 5 13 3 -3 4 -12 1 -19z m-124 -13
c-7 -21 -12 -19 -10 4 0 11 5 18 9 15 4 -3 5 -11 1 -19z m227 5 c-6 -11 -15
-18 -19 -15 -5 2 -22 -5 -37 -16 l-29 -21 28 26 c16 15 33 24 38 21 5 -4 9 1
9 9 0 9 5 16 10 16 7 0 7 -7 0 -20z m79 17 c-2 -1 -13 -9 -24 -17 -19 -14 -19
-14 -6 3 7 9 18 17 24 17 6 0 8 -1 6 -3z m36 -15 c-3 -3 -11 0 -18 7 -9 10 -8
11 6 5 10 -3 15 -9 12 -12z m-300 -11 c-3 -6 -11 -9 -16 -6 -5 4 -9 2 -9 -4 0
-15 18 -23 25 -11 3 5 11 10 18 10 6 0 2 -6 -9 -14 -13 -10 -23 -11 -31 -4 -9
7 -13 7 -13 -2 0 -8 -3 -11 -6 -8 -9 10 16 49 27 43 5 -4 9 -1 9 6 0 7 3 10 6
6 3 -3 3 -11 -1 -16z m380 9 c-3 -5 -15 -10 -26 -10 -10 0 -18 -6 -16 -12 1
-7 -4 -13 -12 -13 -8 0 -15 6 -17 13 -1 7 0 8 3 2 7 -14 24 -13 21 2 -2 6 8
15 22 19 14 4 26 7 28 8 2 1 0 -3 -3 -9z m-97 -13 c7 -8 6 -18 -4 -31 -8 -11
-14 -15 -14 -9 0 7 5 15 10 18 6 4 8 11 5 16 -9 13 -25 11 -22 -3 1 -8 -7 -12
-21 -11 -13 2 -21 -1 -17 -7 3 -6 -2 -13 -12 -16 -10 -3 -27 -10 -38 -16 -18
-10 -19 -9 -6 5 7 10 22 17 32 17 11 0 18 6 17 13 -2 7 6 11 19 10 13 -2 22 1
22 5 -4 24 12 30 29 9z m-244 -32 c-10 -8 -23 -14 -29 -14 -5 0 -1 6 9 14 11
8 24 15 30 15 5 0 1 -7 -10 -15z m126 5 c0 -5 -6 -10 -13 -10 -7 0 -13 -9 -13
-20 0 -11 6 -20 13 -20 7 0 13 -4 13 -10 0 -14 -2 -13 -40 15 -19 14 -29 25
-24 25 6 0 16 -6 23 -12 11 -11 13 -10 8 4 -4 11 0 21 11 27 22 13 22 13 22 1z
m-97 -45 c-10 -7 -20 -11 -23 -8 -3 2 3 9 12 14 10 6 15 17 12 27 -5 15 -4 14
6 -1 10 -15 8 -21 -7 -32z m257 28 c0 -3 -7 -3 -15 1 -9 3 -15 0 -15 -9 0 -8
-5 -15 -10 -15 -7 0 -7 6 0 20 9 16 40 19 40 3z m-327 -12 c4 0 7 -6 7 -13 0
-9 -3 -9 -12 0 -17 17 -33 15 -18 -3 7 -9 8 -15 2 -15 -5 0 -12 7 -16 15 -3 9
-12 12 -23 9 -13 -4 -15 -3 -5 4 12 8 31 9 65 3z m45 -5 c-7 -8 -15 -12 -17
-11 -5 6 10 25 20 25 5 0 4 -6 -3 -14z m215 -1 c6 -15 -10 -32 -20 -21 -4 3
-1 6 6 6 7 0 9 5 6 10 -4 6 -11 8 -16 5 -5 -4 -9 -1 -9 4 0 16 27 13 33 -4z
m-145 -52 c-16 -15 -18 -15 -24 0 -3 9 -3 25 0 34 6 15 8 15 24 0 15 -16 15
-18 0 -34z m104 33 c-2 -5 2 -13 10 -18 11 -8 11 -9 0 -6 -8 2 -13 8 -12 13 1
6 -9 13 -22 17 -22 7 -22 7 2 5 14 -1 23 -6 22 -11z m-253 -41 c0 -5 -4 -3 -9
5 -5 8 -9 22 -9 30 0 16 17 -16 18 -35z m76 24 c16 -7 14 -8 -9 -4 -26 6 -28
4 -17 -9 9 -11 10 -16 2 -16 -6 0 -11 5 -11 10 0 6 -8 10 -17 11 -15 0 -15 2
2 9 25 11 26 11 50 -1z m180 -49 c-3 -5 0 -11 5 -13 6 -3 5 -4 -1 -3 -7 1 -13
10 -15 20 -1 10 -8 25 -16 35 -7 9 -3 6 10 -7 12 -13 20 -27 17 -32z m81 49
c3 -6 1 -16 -6 -22 -10 -9 -12 -8 -6 7 5 16 2 17 -21 12 -21 -5 -24 -4 -13 4
20 13 37 13 46 -1z m-416 -19 c0 -5 -5 -10 -11 -10 -5 0 -7 5 -4 10 3 6 8 10
11 10 2 0 4 -4 4 -10z m60 -15 c5 -14 14 -25 20 -25 6 0 9 4 5 9 -9 15 13 23
32 11 15 -9 14 -10 -6 -4 -15 4 -21 2 -17 -4 7 -12 -32 -37 -42 -28 -3 3 0 6
7 6 9 0 8 7 -3 22 -16 23 -20 38 -11 38 3 0 10 -11 15 -25z m139 -15 c0 -10
-3 -8 -9 5 -12 27 -12 43 0 25 5 -8 9 -22 9 -30z m102 18 c6 -12 6 -18 -1 -18
-5 0 -10 6 -10 13 0 7 -9 13 -20 14 l-21 2 21 -26 c11 -14 20 -32 20 -40 0 -8
4 -12 9 -8 6 3 14 -2 19 -11 8 -15 11 -14 26 7 9 13 16 18 16 12 0 -6 -7 -16
-15 -23 -18 -15 -20 -31 -3 -27 7 1 13 -8 14 -20 1 -13 -3 -23 -8 -23 -5 0 -6
10 -3 21 5 15 4 19 -4 15 -6 -4 -16 4 -22 18 -7 14 -16 23 -21 20 -5 -3 -12 3
-15 15 -3 11 -9 18 -14 15 -5 -3 -6 3 -2 13 6 16 5 16 -10 4 -11 -9 -17 -10
-17 -2 0 6 5 11 11 11 5 0 7 5 3 12 -5 7 -11 5 -21 -7 -7 -11 -13 -15 -13 -10
0 17 32 44 52 42 11 -1 24 -9 29 -19z m59 2 c0 -5 -2 -10 -4 -10 -3 0 -8 5
-11 10 -3 6 -1 10 4 10 6 0 11 -4 11 -10z m29 -52 c-8 -20 -9 -19 -4 6 6 26 4
28 -9 17 -11 -9 -16 -10 -16 -2 0 6 5 11 10 11 6 0 10 8 11 18 0 13 2 12 9 -5
6 -14 6 -32 -1 -45z m-355 36 c9 -24 2 -26 -12 -4 -7 11 -8 20 -3 20 5 0 12
-7 15 -16z m124 -4 c-7 -10 -14 -18 -15 -16 -6 6 9 36 18 36 5 0 4 -9 -3 -20z
m-152 -10 c5 1 10 -3 12 -9 6 -17 -24 -24 -45 -12 -15 9 -13 10 10 5 17 -4 27
-2 27 5 0 6 -5 10 -11 9 -6 -2 -14 4 -16 12 -4 12 -3 12 5 2 5 -8 13 -13 18
-12z m160 -22 c-18 -26 -22 -17 -5 14 6 11 13 17 16 15 3 -3 -2 -16 -11 -29z
m168 -7 c-2 -3 -12 3 -22 13 -16 17 -16 18 5 5 12 -7 20 -15 17 -18z m-200 4
c3 -9 -3 -19 -14 -25 -14 -7 -20 -7 -20 0 0 5 8 10 17 10 12 0 14 3 6 11 -8 8
-17 7 -34 -2 -13 -7 -27 -12 -31 -11 -5 1 -8 -7 -8 -17 0 -11 -4 -22 -9 -25
-5 -4 -6 5 -2 21 4 16 12 27 17 27 5 -1 18 5 29 12 25 18 41 18 49 -1z m101 4
c16 -7 14 -8 -9 -4 -26 6 -28 4 -17 -9 9 -11 10 -16 2 -16 -6 0 -11 5 -11 11
0 5 -4 7 -10 4 -5 -3 -10 -2 -10 4 0 8 17 19 30 20 3 0 14 -5 25 -10z m-265
-40 c-11 -20 -31 -17 -29 4 0 8 3 7 6 -2 4 -11 7 -11 13 0 5 8 2 18 -8 26 -15
12 -14 13 6 3 18 -9 20 -14 12 -31z m63 26 c-3 -9 -8 -14 -10 -11 -3 3 -2 9 2
15 9 16 15 13 8 -4z m254 -30 c-1 -1 -10 -6 -19 -13 -14 -11 -18 -10 -28 7 -7
14 -7 21 0 21 5 0 10 -7 10 -16 0 -8 5 -12 10 -9 6 4 8 16 4 28 -6 22 -6 22 9
2 9 -11 15 -20 14 -20z m-284 8 c-7 -2 -13 -9 -13 -14 0 -6 5 -7 11 -4 6 4 13
-2 16 -14 3 -11 9 -18 14 -15 5 3 6 -3 2 -13 -6 -14 -9 -13 -19 12 -7 17 -13
26 -14 21 0 -6 -5 -5 -11 1 -13 13 -4 33 14 32 9 0 9 -2 0 -6z m80 -30 c-9 -7
-22 -13 -27 -12 -6 0 -5 3 2 6 6 2 10 9 7 14 -4 5 1 6 10 3 11 -5 14 -2 9 12
-5 16 -4 16 5 4 8 -11 7 -18 -6 -27z m87 27 c-18 -12 -30 -13 -30 -2 0 4 10 9
22 9 18 2 20 0 8 -7z m210 0 c0 -5 -4 -10 -10 -10 -5 0 -10 5 -10 10 0 6 5 10
10 10 6 0 10 -4 10 -10z m-185 -13 c-11 -7 -21 -20 -23 -31 -2 -12 1 -16 9
-10 8 4 10 3 5 -4 -4 -7 -2 -12 3 -12 6 0 11 -5 11 -12 0 -6 -8 -3 -20 7 -29
27 -13 75 25 74 6 0 1 -5 -10 -12z m-260 -16 c-2 -5 7 -13 20 -19 22 -10 24
-14 13 -31 -7 -11 -14 -18 -17 -16 -2 3 2 12 10 22 12 15 12 16 -4 10 -10 -4
-16 -3 -12 2 3 5 0 11 -7 13 -6 2 -12 12 -14 21 -1 9 2 15 7 11 5 -3 7 -9 4
-13z m297 -33 c-9 -9 -15 -9 -24 1 -11 12 -10 13 6 7 16 -5 17 -2 12 21 -5 27
-5 27 6 5 9 -17 8 -26 0 -34z m84 6 c-7 -18 -32 -13 -28 5 3 14 -15 15 -21 1
-3 -6 -4 -5 -3 2 2 7 9 13 17 13 8 0 13 -6 12 -12 -2 -7 2 -13 8 -13 7 0 9 10
5 28 -5 22 -4 24 5 9 6 -10 8 -25 5 -33z m-176 7 c-6 -12 -15 -19 -21 -16 -5
4 -9 -3 -9 -15 0 -12 4 -19 9 -15 6 3 15 -3 20 -14 8 -14 7 -22 -4 -31 -9 -7
-18 -10 -22 -6 -3 3 -2 6 3 6 5 0 10 10 11 23 2 21 1 21 -12 4 -12 -16 -13
-14 -12 20 2 26 6 37 16 35 9 -2 11 3 7 13 -3 9 -2 13 4 10 6 -3 10 -1 10 6 0
7 3 10 6 7 3 -4 1 -16 -6 -27z m-149 2 c13 -17 13 -17 -6 -3 -11 8 -22 16 -24
17 -2 2 0 3 6 3 6 0 17 -8 24 -17z m100 -3 c-12 -11 -27 -17 -32 -14 -5 3 -9
-4 -9 -16 0 -12 4 -19 8 -16 4 2 14 0 22 -5 11 -7 8 -8 -10 -6 -31 5 -36 48
-6 53 10 1 23 7 29 13 6 6 13 11 17 11 3 -1 -6 -9 -19 -20z m-156 -39 c4 -15
3 -21 -3 -17 -5 3 -12 17 -15 32 -5 30 8 20 18 -15z m68 12 c-16 -6 -17 -24
-2 -20 6 1 14 -4 16 -10 7 -18 -22 -27 -44 -14 -15 9 -13 10 10 5 17 -4 27 -2
27 6 0 6 -4 9 -9 5 -12 -7 -24 12 -16 25 3 6 12 10 18 9 9 0 9 -2 0 -6z m157
-3 c0 -5 -4 -10 -10 -10 -5 0 -10 5 -10 10 0 6 5 10 10 10 6 0 10 -4 10 -10z
m100 0 c0 -5 -4 -10 -10 -10 -5 0 -10 5 -10 10 0 6 5 10 10 10 6 0 10 -4 10
-10z m80 0 c0 -5 -4 -10 -10 -10 -5 0 -10 5 -10 10 0 6 5 10 10 10 6 0 10 -4
10 -10z m-116 -15 c-4 -8 -11 -15 -16 -15 -6 0 -5 6 2 15 7 8 14 15 16 15 2 0
1 -7 -2 -15z m-305 -35 c0 -10 -3 -8 -9 5 -12 27 -12 43 0 25 5 -8 9 -22 9
-30z m267 28 c5 -7 3 -8 -5 -4 -8 6 -11 2 -9 -10 2 -11 12 -24 23 -31 11 -7
16 -12 10 -12 -28 -1 -53 38 -39 61 7 11 12 10 20 -4z m130 -6 c1 -7 0 -8 -3
-2 -7 14 -23 12 -20 -2 1 -7 -4 -13 -12 -13 -8 0 -15 6 -17 13 -1 7 0 8 3 2 5
-12 24 -14 22 -2 -4 25 22 29 27 4z m-86 -29 c-11 -17 -11 -17 -6 0 3 10 6 24
7 30 0 9 2 9 5 0 3 -7 0 -20 -6 -30z m-260 -23 c-9 -17 -14 -18 -30 -8 -10 7
-17 14 -15 17 3 2 11 -1 19 -8 11 -9 15 -8 20 4 3 9 0 15 -9 15 -8 0 -15 5
-15 10 0 7 7 7 20 0 16 -9 18 -15 10 -30z m113 28 c13 -10 14 -17 6 -28 -9
-12 -10 -12 -5 4 5 14 2 17 -9 12 -9 -3 -14 -2 -10 3 3 5 -1 12 -7 14 -7 3 -8
6 -2 6 5 1 18 -5 27 -11z m-179 -14 c5 -14 4 -15 -9 -4 -17 14 -19 20 -6 20 5
0 12 -7 15 -16z m147 -15 c4 -13 7 -20 8 -16 1 5 14 -1 30 -12 24 -18 30 -19
35 -6 3 9 0 15 -9 15 -8 0 -15 5 -15 10 0 7 7 7 20 0 17 -9 18 -15 10 -31 -11
-19 -11 -19 -38 0 -15 10 -31 18 -37 17 -5 0 -11 9 -13 22 -2 12 -8 20 -13 17
-5 -4 -9 -1 -9 5 0 21 24 4 31 -21z m203 7 c-3 -9 -10 -16 -15 -16 -6 0 -5 9
1 21 13 24 24 20 14 -5z m-374 -6 c0 -5 -7 -7 -15 -4 -8 4 -15 8 -15 10 0 2 7
4 15 4 8 0 15 -4 15 -10z m123 3 c-7 -2 -13 -9 -13 -14 0 -6 5 -7 11 -4 6 4
13 -2 16 -14 3 -12 9 -21 14 -21 5 0 9 -4 9 -10 0 -21 -20 -9 -26 15 -3 14
-10 23 -14 20 -11 -7 -23 12 -15 25 3 6 12 10 18 9 9 0 9 -2 0 -6z m167 -3
c12 -7 10 -9 -8 -7 -12 0 -22 5 -22 9 0 11 12 10 30 -2z m120 -5 c0 -8 -2 -15
-4 -15 -2 0 -6 7 -10 15 -3 8 -1 15 4 15 6 0 10 -7 10 -15z m-442 -24 c-7 -11
-16 -18 -20 -15 -4 3 -2 11 5 19 18 21 29 18 15 -4z m82 6 c-3 -5 8 -15 23
-24 23 -12 26 -17 16 -29 -6 -8 -16 -14 -22 -14 -6 0 -2 7 9 16 17 14 17 15 1
10 -10 -3 -16 -2 -13 3 3 5 -1 12 -10 15 -8 3 -13 10 -9 15 3 5 -5 12 -17 14
-21 5 -20 5 2 4 14 -1 23 -6 20 -10z m290 3 c0 -5 8 -10 18 -11 13 0 12 -2 -6
-9 -25 -10 -52 -4 -52 13 0 7 4 7 12 -1 17 -17 33 -15 18 3 -9 10 -9 15 -1 15
6 0 11 -4 11 -10z m53 -5 c4 -8 3 -16 -1 -19 -4 -3 -9 4 -9 15 -2 23 3 25 10
4z m-393 -5 c0 -5 -5 -10 -11 -10 -5 0 -7 5 -4 10 3 6 8 10 11 10 2 0 4 -4 4
-10z m303 -24 c12 12 19 -24 8 -43 -9 -15 -10 -13 -5 11 5 20 3 27 -4 22 -10
-6 -32 22 -32 41 1 4 6 -2 13 -15 7 -12 16 -20 20 -16z m-254 -20 c-2 -2 -13
8 -23 22 l-19 27 24 -22 c12 -12 21 -24 18 -27z m62 27 c13 -17 13 -17 -6 -3
-11 8 -22 16 -24 17 -2 2 0 3 6 3 6 0 17 -8 24 -17z m90 -4 c11 -5 17 -15 13
-21 -4 -6 1 -8 14 -4 31 10 38 -22 7 -36 -13 -6 -22 -14 -20 -19 10 -15 -17
-21 -30 -8 -12 12 -11 17 1 33 8 11 14 15 14 9 0 -7 -5 -15 -10 -18 -12 -7 -4
-25 11 -25 6 0 8 4 4 10 -3 5 7 16 22 24 27 15 26 17 -7 20 -8 0 -14 7 -12 14
4 23 -19 12 -29 -14 -5 -15 -12 -24 -16 -21 -3 4 -20 -3 -37 -14 l-31 -21 30
26 c16 14 31 23 34 21 2 -3 9 5 16 18 8 15 8 24 1 29 -17 12 3 9 25 -3z m-176
-30 c8 -13 17 -22 22 -19 4 3 8 -4 9 -15 1 -16 0 -16 -3 -2 -3 9 -9 15 -14 12
-5 -4 -12 1 -15 9 -3 9 -10 13 -15 10 -5 -3 -6 1 -4 8 3 8 -2 14 -13 15 -11 1
-18 -6 -19 -18 -1 -11 2 -17 7 -14 5 3 19 -5 32 -17 13 -13 16 -17 7 -10 -10
8 -25 15 -34 16 -23 3 -36 27 -23 43 15 19 49 10 63 -18z m259 -9 c-6 -5 -24
21 -24 34 0 6 6 1 14 -10 8 -10 12 -21 10 -24z m96 12 c0 -15 -2 -15 -10 -2
-13 20 -13 33 0 25 6 -3 10 -14 10 -23z m-244 -4 c4 -6 3 -8 -3 -5 -6 4 -14 0
-17 -9 -3 -8 -10 -12 -16 -9 -5 3 -10 0 -10 -7 0 -8 -7 -23 -15 -34 -13 -17
-13 -15 0 16 7 19 19 34 25 33 5 -2 10 4 10 12 0 18 16 20 26 3z m-176 -33
c14 -19 14 -19 -2 -6 -10 7 -18 18 -18 24 0 6 1 8 3 6 1 -2 9 -13 17 -24z
m336 -6 c3 -6 1 -16 -6 -22 -10 -9 -12 -8 -6 7 5 16 2 17 -21 12 -21 -5 -24
-4 -13 4 20 13 37 13 46 -1z m-136 -9 c0 -5 -7 -10 -16 -10 -8 0 -13 -4 -9 -9
3 -5 -5 -20 -17 -33 -13 -13 -17 -16 -10 -7 8 10 15 25 16 34 1 9 9 21 17 26
18 11 19 11 19 -1z m-264 -36 c-3 -8 1 -14 9 -14 8 0 15 -5 15 -10 0 -20 -34
7 -35 28 -1 12 2 19 7 16 5 -4 7 -12 4 -20z m336 4 c-7 -7 -12 -8 -12 -2 0 14
12 26 19 19 2 -3 -1 -11 -7 -17z m53 -7 c-6 -5 -25 10 -25 20 0 5 6 4 14 -3 8
-7 12 -15 11 -17z m-235 6 c0 -7 9 -13 20 -13 11 0 20 6 20 13 0 7 5 13 10 13
7 0 7 -6 0 -20 -7 -12 -16 -17 -28 -13 -14 5 -15 3 -4 -8 6 -7 12 -17 12 -23
0 -5 -11 5 -25 24 -28 38 -29 40 -15 40 6 0 10 -6 10 -13z m130 3 c0 -5 -4
-10 -10 -10 -5 0 -10 5 -10 10 0 6 5 10 10 10 6 0 10 -4 10 -10z m-20 -31 c0
-5 -7 -9 -15 -9 -8 0 -14 -6 -12 -12 1 -7 -9 -13 -23 -14 -22 -2 -22 -2 -2 3
12 2 20 9 17 14 -4 5 1 12 9 15 9 3 13 11 9 17 -3 6 -1 7 5 3 7 -4 12 -11 12
-17z m56 9 c5 -8 2 -9 -10 -5 -16 6 -17 3 -12 -20 5 -23 4 -25 -5 -10 -12 20
-6 47 10 47 5 0 13 -5 17 -12z m34 -3 c-10 -12 -10 -18 0 -30 9 -10 9 -15 1
-15 -6 0 -11 5 -11 10 0 6 -7 10 -15 10 -12 0 -12 3 3 19 20 23 40 28 22 6z
m-370 -15 c0 -5 -7 -7 -15 -4 -8 4 -15 8 -15 10 0 2 7 4 15 4 8 0 15 -4 15
-10z m89 -49 c0 -10 -4 -7 -10 8 -5 14 -13 30 -17 36 -4 6 1 2 11 -8 9 -11 17
-27 16 -36z m81 44 c10 -12 9 -16 -4 -21 -9 -3 -23 -3 -32 0 -13 5 -14 9 -4
21 16 19 24 19 40 0z m240 11 c0 -2 -7 -6 -15 -10 -8 -3 -15 -1 -15 4 0 6 7
10 15 10 8 0 15 -2 15 -4z m-430 -26 c0 -5 -2 -10 -4 -10 -3 0 -8 5 -11 10 -3
6 -1 10 4 10 6 0 11 -4 11 -10z m75 -10 c0 -7 -6 -14 -13 -16 -7 -1 -8 0 -2 3
5 2 10 9 10 14 0 6 -4 8 -8 5 -4 -2 -14 0 -22 5 -11 7 -8 8 10 6 14 -2 25 -10
25 -17z m245 -1 c0 -6 -4 -7 -10 -4 -5 3 -10 11 -10 16 0 6 5 7 10 4 6 -3 10
-11 10 -16z m114 -4 c-4 -8 -11 -12 -17 -8 -8 5 -7 8 1 11 7 2 9 9 6 14 -4 7
-2 8 4 4 6 -4 9 -13 6 -21z m-280 -14 c-2 -3 -12 3 -22 13 -16 17 -16 18 5 5
12 -7 20 -15 17 -18z m-166 -6 c-3 -3 -9 2 -12 12 -6 14 -5 15 5 6 7 -7 10
-15 7 -18z m240 17 c8 -6 2 -9 -18 -9 -20 0 -26 3 -18 9 7 4 15 8 18 8 3 0 11
-4 18 -8z m71 -15 c0 -9 -2 -9 -5 0 -3 7 -13 9 -22 6 -14 -4 -14 -3 -2 5 16
12 30 7 29 -11z m61 13 c-8 -5 -19 -10 -25 -10 -5 0 -3 5 5 10 8 5 20 10 25
10 6 0 3 -5 -5 -10z"/>
<path d="M1788 1928 c9 -9 15 -9 24 0 9 9 7 12 -12 12 -19 0 -21 -3 -12 -12z"/>
<path d="M1663 1922 c-1 -11 5 -18 17 -18 12 0 18 7 17 18 -1 10 -8 18 -17 18
-9 0 -16 -8 -17 -18z"/>
<path d="M1564 1609 c-3 -6 -1 -16 5 -22 8 -8 11 -5 11 11 0 24 -5 28 -16 11z"/>
<path d="M1465 1590 c-3 -5 3 -10 15 -10 12 0 18 5 15 10 -3 6 -10 10 -15 10
-5 0 -12 -4 -15 -10z"/>
<path d="M1140 1040 c0 -19 3 -21 12 -12 9 9 9 15 0 24 -9 9 -12 7 -12 -12z"/>
<path d="M825 550 c-3 -5 3 -10 15 -10 12 0 18 5 15 10 -3 6 -10 10 -15 10 -5
0 -12 -4 -15 -10z"/>
<path d="M2455 2071 c-3 -5 -2 -12 3 -15 5 -3 9 1 9 9 0 17 -3 19 -12 6z"/>
<path d="M2210 2059 c0 -5 5 -7 10 -4 6 3 10 8 10 11 0 2 -4 4 -10 4 -5 0 -10
-5 -10 -11z"/>
<path d="M2296 2058 c3 -4 11 -5 19 -1 21 7 19 12 -4 10 -11 0 -18 -5 -15 -9z"/>
<path d="M2493 2055 c0 -8 4 -12 9 -9 5 3 6 10 3 15 -9 13 -12 11 -12 -6z"/>
<path d="M2129 2037 c6 -8 7 -18 3 -22 -4 -5 -1 -5 6 -1 10 6 10 11 1 22 -6 8
-14 14 -16 14 -3 0 0 -6 6 -13z"/>
<path d="M2254 2036 c1 -8 5 -18 8 -22 4 -3 5 1 4 10 -1 8 -5 18 -8 22 -4 3
-5 -1 -4 -10z"/>
<path d="M2370 2019 c0 -5 5 -7 10 -4 6 3 10 8 10 11 0 2 -4 4 -10 4 -5 0 -10
-5 -10 -11z"/>
<path d="M2133 1975 c0 -8 4 -12 9 -9 5 3 6 10 3 15 -9 13 -12 11 -12 -6z"/>
<path d="M2166 1978 c3 -5 10 -6 15 -3 13 9 11 12 -6 12 -8 0 -12 -4 -9 -9z"/>
<path d="M2214 1982 c4 -3 14 -7 22 -8 9 -1 13 0 10 4 -4 3 -14 7 -22 8 -9 1
-13 0 -10 -4z"/>
<path d="M2395 1979 c-3 -4 2 -6 10 -5 21 3 28 13 10 13 -9 0 -18 -4 -20 -8z"/>
<path d="M2496 1982 c-2 -4 -1 -14 4 -22 7 -11 9 -9 7 8 -1 24 -3 26 -11 14z"/>
<path d="M2050 1940 c0 -5 5 -10 11 -10 5 0 7 5 4 10 -3 6 -8 10 -11 10 -2 0
-4 -4 -4 -10z"/>
<path d="M2275 1939 c-3 -4 2 -6 10 -5 21 3 28 13 10 13 -9 0 -18 -4 -20 -8z"/>
<path d="M2179 1928 c-5 -18 -6 -38 -1 -34 7 8 12 36 6 36 -2 0 -4 -1 -5 -2z"/>
<path d="M2414 1916 c1 -8 5 -18 8 -22 4 -3 5 1 4 10 -1 8 -5 18 -8 22 -4 3
-5 -1 -4 -10z"/>
<path d="M2095 1899 c-3 -4 2 -6 10 -5 21 3 28 13 10 13 -9 0 -18 -4 -20 -8z"/>
<path d="M2335 1900 c-3 -5 -1 -10 4 -10 6 0 11 5 11 10 0 6 -2 10 -4 10 -3 0
-8 -4 -11 -10z"/>
<path d="M2094 1862 c4 -3 14 -7 22 -8 9 -1 13 0 10 4 -4 3 -14 7 -22 8 -9 1
-13 0 -10 -4z"/>
<path d="M2174 1856 c1 -8 5 -18 8 -22 4 -3 5 1 4 10 -1 8 -5 18 -8 22 -4 3
-5 -1 -4 -10z"/>
<path d="M2219 1868 c-5 -18 -6 -38 -1 -34 7 8 12 36 6 36 -2 0 -4 -1 -5 -2z"/>
<path d="M1996 1833 c-6 -14 -5 -15 5 -6 7 7 10 15 7 18 -3 3 -9 -2 -12 -12z"/>
<path d="M2253 1831 c0 -11 5 -18 9 -15 4 3 5 11 1 19 -7 21 -12 19 -10 -4z"/>
<path d="M2390 1837 c0 -2 6 -10 14 -16 11 -9 16 -9 22 1 4 7 4 10 -1 6 -4 -4
-14 -3 -22 3 -7 6 -13 9 -13 6z"/>
<path d="M2034 1822 c4 -3 14 -7 22 -8 9 -1 13 0 10 4 -4 3 -14 7 -22 8 -9 1
-13 0 -10 -4z"/>
<path d="M2095 1819 c-3 -4 2 -6 10 -5 21 3 28 13 10 13 -9 0 -18 -4 -20 -8z"/>
<path d="M2330 1819 c0 -5 5 -7 10 -4 6 3 10 8 10 11 0 2 -4 4 -10 4 -5 0 -10
-5 -10 -11z"/>
<path d="M2015 1780 c3 -5 8 -10 11 -10 2 0 4 5 4 10 0 6 -5 10 -11 10 -5 0
-7 -4 -4 -10z"/>
<path d="M2174 1782 c4 -3 14 -7 22 -8 9 -1 13 0 10 4 -4 3 -14 7 -22 8 -9 1
-13 0 -10 -4z"/>
<path d="M2064 1762 c4 -3 14 -7 22 -8 9 -1 13 0 10 4 -4 3 -14 7 -22 8 -9 1
-13 0 -10 -4z"/>
<path d="M2230 1764 c0 -20 27 -37 36 -23 4 7 3 9 -4 5 -6 -3 -15 2 -21 11 -6
10 -11 13 -11 7z"/>
<path d="M2120 1740 c-12 -7 -10 -9 7 -7 12 0 19 5 17 9 -6 10 -6 10 -24 -2z"/>
<path d="M2310 1745 c0 -7 30 -13 34 -7 3 4 -4 9 -15 9 -10 1 -19 0 -19 -2z"/>
<path d="M2376 1738 c3 -5 10 -6 15 -3 13 9 11 12 -6 12 -8 0 -12 -4 -9 -9z"/>
<path d="M1935 1720 c3 -5 8 -10 11 -10 2 0 4 5 4 10 0 6 -5 10 -11 10 -5 0
-7 -4 -4 -10z"/>
<path d="M1979 1688 c-5 -18 -6 -38 -1 -34 7 8 12 36 6 36 -2 0 -4 -1 -5 -2z"/>
<path d="M2057 1675 c-4 -8 -3 -16 1 -19 4 -3 9 4 9 15 2 23 -3 25 -10 4z"/>
<path d="M2134 1676 c1 -8 5 -18 8 -22 4 -3 5 1 4 10 -1 8 -5 18 -8 22 -4 3
-5 -1 -4 -10z"/>
<path d="M2214 1676 c1 -8 5 -18 8 -22 4 -3 5 1 4 10 -1 8 -5 18 -8 22 -4 3
-5 -1 -4 -10z"/>
<path d="M2313 1675 c0 -8 4 -12 9 -9 4 3 8 9 8 15 0 5 -4 9 -8 9 -5 0 -9 -7
-9 -15z"/>
<path d="M1915 1669 c-4 -6 -5 -12 -2 -15 2 -3 7 2 10 11 7 17 1 20 -8 4z"/>
<path d="M2256 1662 c-2 -4 -1 -14 4 -22 7 -11 9 -9 7 8 -1 24 -3 26 -11 14z"/>
<path d="M1910 1597 c0 -2 6 -10 14 -16 11 -9 16 -9 22 1 4 7 4 10 -1 6 -4 -4
-14 -3 -22 3 -7 6 -13 9 -13 6z"/>
<path d="M1990 1585 c0 -7 30 -13 34 -7 3 4 -4 9 -15 9 -10 1 -19 0 -19 -2z"/>
<path d="M2070 1585 c0 -7 30 -13 34 -7 3 4 -4 9 -15 9 -10 1 -19 0 -19 -2z"/>
<path d="M2136 1578 c3 -4 11 -5 19 -1 21 7 19 12 -4 10 -11 0 -18 -5 -15 -9z"/>
<path d="M2216 1578 c3 -5 10 -6 15 -3 13 9 11 12 -6 12 -8 0 -12 -4 -9 -9z"/>
<path d="M1870 1561 c0 -6 4 -13 10 -16 6 -3 7 1 4 9 -7 18 -14 21 -14 7z"/>
<path d="M2059 1568 c-5 -18 -6 -38 -1 -34 7 8 12 36 6 36 -2 0 -4 -1 -5 -2z"/>
<path d="M2095 1551 c-3 -5 -2 -12 3 -15 5 -3 9 1 9 9 0 17 -3 19 -12 6z"/>
<path d="M1999 1538 c-5 -18 -6 -38 -1 -34 7 8 12 36 6 36 -2 0 -4 -1 -5 -2z"/>
<path d="M1819 1528 c-5 -18 -6 -38 -1 -34 7 8 12 36 6 36 -2 0 -4 -1 -5 -2z"/>
<path d="M2150 1521 c0 -6 4 -12 8 -15 5 -3 9 1 9 9 0 8 -4 15 -9 15 -4 0 -8
-4 -8 -9z"/>
<path d="M1895 1500 c3 -5 8 -10 11 -10 2 0 4 5 4 10 0 6 -5 10 -11 10 -5 0
-7 -4 -4 -10z"/>
<path d="M1939 1508 c-5 -18 -6 -38 -1 -34 7 8 12 36 6 36 -2 0 -4 -1 -5 -2z"/>
<path d="M2096 1502 c-2 -4 -1 -14 4 -22 7 -11 9 -9 7 8 -1 24 -3 26 -11 14z"/>
<path d="M2215 1500 c-3 -5 -1 -10 4 -10 6 0 11 5 11 10 0 6 -2 10 -4 10 -3 0
-8 -4 -11 -10z"/>
<path d="M2137 1475 c-4 -8 -3 -16 1 -19 4 -3 9 4 9 15 2 23 -3 25 -10 4z"/>
<path d="M1855 1461 c-3 -5 -2 -12 3 -15 5 -3 9 1 9 9 0 17 -3 19 -12 6z"/>
<path d="M1975 1460 c3 -5 8 -10 11 -10 2 0 4 5 4 10 0 6 -5 10 -11 10 -5 0
-7 -4 -4 -10z"/>
<path d="M1582 1418 c-14 -14 -16 -28 -3 -28 9 0 24 30 18 36 -2 2 -9 -2 -15
-8z"/>
<path d="M1846 1422 c-3 -5 1 -9 9 -9 8 0 12 4 9 9 -3 4 -7 8 -9 8 -2 0 -6 -4
-9 -8z"/>
<path d="M2010 1420 c0 -5 5 -10 11 -10 5 0 7 5 4 10 -3 6 -8 10 -11 10 -2 0
-4 -4 -4 -10z"/>
<path d="M1774 1396 c1 -8 5 -18 8 -22 4 -3 5 1 4 10 -1 8 -5 18 -8 22 -4 3
-5 -1 -4 -10z"/>
<path d="M1894 1396 c1 -8 5 -18 8 -22 4 -3 5 1 4 10 -1 8 -5 18 -8 22 -4 3
-5 -1 -4 -10z"/>
<path d="M2135 1391 c-3 -5 -2 -12 3 -15 5 -3 9 1 9 9 0 17 -3 19 -12 6z"/>
<path d="M1736 1338 c3 -5 10 -6 15 -3 13 9 11 12 -6 12 -8 0 -12 -4 -9 -9z"/>
<path d="M1775 1341 c-3 -5 -2 -12 3 -15 5 -3 9 1 9 9 0 17 -3 19 -12 6z"/>
<path d="M1914 1342 c4 -3 14 -7 22 -8 9 -1 13 0 10 4 -4 3 -14 7 -22 8 -9 1
-13 0 -10 -4z"/>
<path d="M2013 1329 c-2 -23 3 -25 10 -4 4 8 3 16 -1 19 -4 3 -9 -4 -9 -15z"/>
<path d="M1713 1315 c0 -8 4 -12 9 -9 5 3 6 10 3 15 -9 13 -12 11 -12 -6z"/>
<path d="M1810 1299 c0 -5 5 -7 10 -4 6 3 10 8 10 11 0 2 -4 4 -10 4 -5 0 -10
-5 -10 -11z"/>
<path d="M2034 1302 c4 -3 14 -7 22 -8 9 -1 13 0 10 4 -4 3 -14 7 -22 8 -9 1
-13 0 -10 -4z"/>
<path d="M2094 1302 c4 -3 14 -7 22 -8 9 -1 13 0 10 4 -4 3 -14 7 -22 8 -9 1
-13 0 -10 -4z"/>
<path d="M1693 1271 c0 -11 5 -18 9 -15 4 3 5 11 1 19 -7 21 -12 19 -10 -4z"/>
<path d="M1760 1280 c-9 -6 -10 -10 -3 -10 6 0 15 5 18 10 8 12 4 12 -15 0z"/>
<path d="M1934 1276 c1 -8 5 -18 8 -22 4 -3 5 1 4 10 -1 8 -5 18 -8 22 -4 3
-5 -1 -4 -10z"/>
<path d="M1505 1270 c-3 -5 -1 -10 4 -10 6 0 11 5 11 10 0 6 -2 10 -4 10 -3 0
-8 -4 -11 -10z"/>
<path d="M1854 1262 c4 -3 14 -7 22 -8 9 -1 13 0 10 4 -4 3 -14 7 -22 8 -9 1
-13 0 -10 -4z"/>
<path d="M1796 1233 c-6 -14 -5 -15 5 -6 7 7 10 15 7 18 -3 3 -9 -2 -12 -12z"/>
<path d="M1973 1215 c0 -8 4 -12 9 -9 5 3 6 10 3 15 -9 13 -12 11 -12 -6z"/>
<path d="M2034 1222 c4 -3 14 -7 22 -8 9 -1 13 0 10 4 -4 3 -14 7 -22 8 -9 1
-13 0 -10 -4z"/>
<path d="M1854 1196 c1 -8 5 -18 8 -22 4 -3 5 1 4 10 -1 8 -5 18 -8 22 -4 3
-5 -1 -4 -10z"/>
<path d="M1655 1181 c-3 -5 -2 -12 3 -15 5 -3 9 1 9 9 0 17 -3 19 -12 6z"/>
<path d="M1736 1182 c-3 -5 1 -9 9 -9 8 0 12 4 9 9 -3 4 -7 8 -9 8 -2 0 -6 -4
-9 -8z"/>
<path d="M1775 1180 c3 -5 8 -10 11 -10 2 0 4 5 4 10 0 6 -5 10 -11 10 -5 0
-7 -4 -4 -10z"/>
<path d="M1975 1179 c-3 -4 2 -6 10 -5 21 3 28 13 10 13 -9 0 -18 -4 -20 -8z"/>
<path d="M1939 1168 c-5 -18 -6 -38 -1 -34 7 8 12 36 6 36 -2 0 -4 -1 -5 -2z"/>
<path d="M2047 1159 c7 -7 15 -10 18 -7 3 3 -2 9 -12 12 -14 6 -15 5 -6 -5z"/>
<path d="M1675 1139 c-3 -4 2 -6 10 -5 21 3 28 13 10 13 -9 0 -18 -4 -20 -8z"/>
<path d="M1814 1136 c1 -8 5 -18 8 -22 4 -3 5 1 4 10 -1 8 -5 18 -8 22 -4 3
-5 -1 -4 -10z"/>
<path d="M1894 1136 c1 -8 5 -18 8 -22 4 -3 5 1 4 10 -1 8 -5 18 -8 22 -4 3
-5 -1 -4 -10z"/>
<path d="M1616 1098 c3 -5 10 -6 15 -3 13 9 11 12 -6 12 -8 0 -12 -4 -9 -9z"/>
<path d="M1655 1101 c-3 -5 -2 -12 3 -15 5 -3 9 1 9 9 0 17 -3 19 -12 6z"/>
<path d="M1734 1056 c1 -8 5 -18 8 -22 4 -3 5 1 4 10 -1 8 -5 18 -8 22 -4 3
-5 -1 -4 -10z"/>
<path d="M1794 1062 c4 -3 14 -7 22 -8 9 -1 13 0 10 4 -4 3 -14 7 -22 8 -9 1
-13 0 -10 -4z"/>
<path d="M1915 1059 c-3 -4 2 -6 10 -5 21 3 28 13 10 13 -9 0 -18 -4 -20 -8z"/>
<path d="M1554 1022 c4 -3 14 -7 22 -8 9 -1 13 0 10 4 -4 3 -14 7 -22 8 -9 1
-13 0 -10 -4z"/>
<path d="M1614 1022 c4 -3 14 -7 22 -8 9 -1 13 0 10 4 -4 3 -14 7 -22 8 -9 1
-13 0 -10 -4z"/>
<path d="M1854 1022 c4 -3 14 -7 22 -8 9 -1 13 0 10 4 -4 3 -14 7 -22 8 -9 1
-13 0 -10 -4z"/>
<path d="M1576 978 c3 -5 10 -6 15 -3 13 9 11 12 -6 12 -8 0 -12 -4 -9 -9z"/>
<path d="M1654 982 c4 -3 14 -7 22 -8 9 -1 13 0 10 4 -4 3 -14 7 -22 8 -9 1
-13 0 -10 -4z"/>
<path d="M1933 969 c-2 -23 3 -25 10 -4 4 8 3 16 -1 19 -4 3 -9 -4 -9 -15z"/>
<path d="M1573 945 c0 -8 4 -12 9 -9 5 3 6 10 3 15 -9 13 -12 11 -12 -6z"/>
<path d="M1653 945 c0 -8 4 -12 9 -9 5 3 6 10 3 15 -9 13 -12 11 -12 -6z"/>
<path d="M1693 935 c0 -8 4 -12 9 -9 5 3 6 10 3 15 -9 13 -12 11 -12 -6z"/>
<path d="M1726 938 c3 -5 10 -6 15 -3 13 9 11 12 -6 12 -8 0 -12 -4 -9 -9z"/>
<path d="M1775 940 c-3 -5 -1 -10 4 -10 6 0 11 5 11 10 0 6 -2 10 -4 10 -3 0
-8 -4 -11 -10z"/>
<path d="M1855 940 c3 -5 8 -10 11 -10 2 0 4 5 4 10 0 6 -5 10 -11 10 -5 0 -7
-4 -4 -10z"/>
<path d="M1493 905 c0 -8 4 -12 9 -9 5 3 6 10 3 15 -9 13 -12 11 -12 -6z"/>
<path d="M1619 908 c-5 -18 -6 -38 -1 -34 7 8 12 36 6 36 -2 0 -4 -1 -5 -2z"/>
<path d="M1895 900 c-3 -5 -1 -10 4 -10 6 0 11 5 11 10 0 6 -2 10 -4 10 -3 0
-8 -4 -11 -10z"/>
<path d="M1515 859 c-3 -4 2 -6 10 -5 21 3 28 13 10 13 -9 0 -18 -4 -20 -8z"/>
<path d="M1574 862 c4 -3 14 -7 22 -8 9 -1 13 0 10 4 -4 3 -14 7 -22 8 -9 1
-13 0 -10 -4z"/>
<path d="M1715 859 c-3 -4 2 -6 10 -5 21 3 28 13 10 13 -9 0 -18 -4 -20 -8z"/>
<path d="M1775 860 c3 -5 8 -10 11 -10 2 0 4 5 4 10 0 6 -5 10 -11 10 -5 0 -7
-4 -4 -10z"/>
<path d="M1573 825 c0 -8 4 -12 9 -9 5 3 6 10 3 15 -9 13 -12 11 -12 -6z"/>
<path d="M1450 819 c0 -5 5 -7 10 -4 6 3 10 8 10 11 0 2 -4 4 -10 4 -5 0 -10
-5 -10 -11z"/>
<path d="M1696 818 c3 -4 11 -5 19 -1 21 7 19 12 -4 10 -11 0 -18 -5 -15 -9z"/>
<path d="M1513 805 c0 -8 4 -15 9 -15 4 0 8 4 8 9 0 6 -4 12 -8 15 -5 3 -9 -1
-9 -9z"/>
<path d="M1746 798 c3 -4 9 -8 15 -8 5 0 9 4 9 8 0 5 -7 9 -15 9 -8 0 -12 -4
-9 -9z"/>
<path d="M1574 776 c1 -8 5 -18 8 -22 4 -3 5 1 4 10 -1 8 -5 18 -8 22 -4 3 -5
-1 -4 -10z"/>
<path d="M1635 779 c-3 -4 2 -6 10 -5 21 3 28 13 10 13 -9 0 -18 -4 -20 -8z"/>
<path d="M1794 782 c4 -3 14 -7 22 -8 9 -1 13 0 10 4 -4 3 -14 7 -22 8 -9 1
-13 0 -10 -4z"/>
<path d="M1710 761 c0 -6 4 -13 10 -16 6 -3 7 1 4 9 -7 18 -14 21 -14 7z"/>
<path d="M1446 742 c-3 -5 1 -9 9 -9 8 0 12 4 9 9 -3 4 -7 8 -9 8 -2 0 -6 -4
-9 -8z"/>
<path d="M1520 740 c-12 -7 -10 -9 7 -7 12 0 19 5 17 9 -6 10 -6 10 -24 -2z"/>
<path d="M1414 716 c1 -8 5 -18 8 -22 4 -3 5 1 4 10 -1 8 -5 18 -8 22 -4 3 -5
-1 -4 -10z"/>
<path d="M1659 728 c-5 -18 -6 -38 -1 -34 7 8 12 36 6 36 -2 0 -4 -1 -5 -2z"/>
<path d="M1735 700 c3 -5 8 -10 11 -10 2 0 4 5 4 10 0 6 -5 10 -11 10 -5 0 -7
-4 -4 -10z"/>
<path d="M1374 656 c1 -8 5 -18 8 -22 4 -3 5 1 4 10 -1 8 -5 18 -8 22 -4 3 -5
-1 -4 -10z"/>
<path d="M1419 668 c-5 -18 -6 -38 -1 -34 7 8 12 36 6 36 -2 0 -4 -1 -5 -2z"/>
<path d="M1454 656 c1 -8 5 -18 8 -22 4 -3 5 1 4 10 -1 8 -5 18 -8 22 -4 3 -5
-1 -4 -10z"/>
<path d="M1533 649 c-2 -23 3 -25 10 -4 4 8 3 16 -1 19 -4 3 -9 -4 -9 -15z"/>
<path d="M1610 620 c0 -5 5 -10 11 -10 5 0 7 5 4 10 -3 6 -8 10 -11 10 -2 0
-4 -4 -4 -10z"/>
<path d="M1690 620 c0 -5 5 -10 11 -10 5 0 7 5 4 10 -3 6 -8 10 -11 10 -2 0
-4 -4 -4 -10z"/>
<path d="M1374 582 c4 -3 14 -7 22 -8 9 -1 13 0 10 4 -4 3 -14 7 -22 8 -9 1
-13 0 -10 -4z"/>
<path d="M1535 580 c3 -5 8 -10 11 -10 2 0 4 5 4 10 0 6 -5 10 -11 10 -5 0 -7
-4 -4 -10z"/>
<path d="M1730 579 c0 -5 5 -7 10 -4 6 3 10 8 10 11 0 2 -4 4 -10 4 -5 0 -10
-5 -10 -11z"/>
<path d="M1679 578 c-5 -18 -6 -38 -1 -34 7 8 12 36 6 36 -2 0 -4 -1 -5 -2z"/>
<path d="M1430 560 c0 -5 5 -10 10 -10 6 0 10 5 10 10 0 6 -4 10 -10 10 -5 0
-10 -4 -10 -10z"/>
<path d="M1315 539 c-3 -4 2 -6 10 -5 21 3 28 13 10 13 -9 0 -18 -4 -20 -8z"/>
<path d="M1375 539 c-3 -4 2 -6 10 -5 21 3 28 13 10 13 -9 0 -18 -4 -20 -8z"/>
<path d="M1474 542 c4 -3 14 -7 22 -8 9 -1 13 0 10 4 -4 3 -14 7 -22 8 -9 1
-13 0 -10 -4z"/>
<path d="M1610 540 c0 -5 5 -10 11 -10 5 0 7 5 4 10 -3 6 -8 10 -11 10 -2 0
-4 -4 -4 -10z"/>
<path d="M1435 521 c-3 -5 -2 -12 3 -15 5 -3 9 1 9 9 0 17 -3 19 -12 6z"/>
<path d="M1550 521 c0 -6 4 -13 10 -16 6 -3 7 1 4 9 -7 18 -14 21 -14 7z"/>
</g>
</svg>
