<svg width="176" height="28" viewBox="0 0 176 28" fill="none" xmlns="http://www.w3.org/2000/svg">
<g id="logo-white">
<g id="Group 8">
<path id="Path 5" fill-rule="evenodd" clip-rule="evenodd" d="M10.8025 4L0 23.704H5.98608L16.7885 4H10.8025Z" fill="white"/>
<path id="Path 5 Copy" opacity="0.5" fill-rule="evenodd" clip-rule="evenodd" d="M17.8025 4L7 23.704H12.9861L23.7885 4H17.8025Z" fill="white"/>
<path id="Path 5 Copy 2" opacity="0.15" fill-rule="evenodd" clip-rule="evenodd" d="M25.5393 4L14.7368 23.704H20.7229L31.5254 4H25.5393Z" fill="url(#paint0_linear)"/>
</g>
<path id="MZM PLAST" d="M44.1172 4.9375L48.5 17.3125L52.8594 4.9375H57.4766V22H53.9492V17.3359L54.3008 9.28516L49.6953 22H47.2812L42.6875 9.29688L43.0391 17.3359V22H39.5234V4.9375H44.1172ZM64.2734 19.1758H72.875V22H59.8789V19.9375L68.3164 7.78516H59.8906V4.9375H72.6875V6.95312L64.2734 19.1758ZM79.6953 4.9375L84.0781 17.3125L88.4375 4.9375H93.0547V22H89.5273V17.3359L89.8789 9.28516L85.2734 22H82.8594L78.2656 9.29688L78.6172 17.3359V22H75.1016V4.9375H79.6953ZM105.617 15.9883V22H102.102V4.9375H108.758C110.039 4.9375 111.164 5.17188 112.133 5.64062C113.109 6.10938 113.859 6.77734 114.383 7.64453C114.906 8.50391 115.168 9.48438 115.168 10.5859C115.168 12.2578 114.594 13.5781 113.445 14.5469C112.305 15.5078 110.723 15.9883 108.699 15.9883H105.617ZM105.617 13.1406H108.758C109.688 13.1406 110.395 12.9219 110.879 12.4844C111.371 12.0469 111.617 11.4219 111.617 10.6094C111.617 9.77344 111.371 9.09766 110.879 8.58203C110.387 8.06641 109.707 7.80078 108.84 7.78516H105.617V13.1406ZM121.109 19.1758H128.574V22H117.594V4.9375H121.109V19.1758ZM140.469 18.4844H134.305L133.133 22H129.395L135.746 4.9375H139.004L145.391 22H141.652L140.469 18.4844ZM135.254 15.6367H139.52L137.375 9.25L135.254 15.6367ZM155.832 17.5234C155.832 16.8594 155.598 16.3516 155.129 16C154.66 15.6406 153.816 15.2656 152.598 14.875C151.379 14.4766 150.414 14.0859 149.703 13.7031C147.766 12.6562 146.797 11.2461 146.797 9.47266C146.797 8.55078 147.055 7.73047 147.57 7.01172C148.094 6.28516 148.84 5.71875 149.809 5.3125C150.785 4.90625 151.879 4.70312 153.09 4.70312C154.309 4.70312 155.395 4.92578 156.348 5.37109C157.301 5.80859 158.039 6.42969 158.562 7.23438C159.094 8.03906 159.359 8.95312 159.359 9.97656H155.844C155.844 9.19531 155.598 8.58984 155.105 8.16016C154.613 7.72266 153.922 7.50391 153.031 7.50391C152.172 7.50391 151.504 7.6875 151.027 8.05469C150.551 8.41406 150.312 8.89062 150.312 9.48438C150.312 10.0391 150.59 10.5039 151.145 10.8789C151.707 11.2539 152.531 11.6055 153.617 11.9336C155.617 12.5352 157.074 13.2812 157.988 14.1719C158.902 15.0625 159.359 16.1719 159.359 17.5C159.359 18.9766 158.801 20.1367 157.684 20.9805C156.566 21.8164 155.062 22.2344 153.172 22.2344C151.859 22.2344 150.664 21.9961 149.586 21.5195C148.508 21.0352 147.684 20.375 147.113 19.5391C146.551 18.7031 146.27 17.7344 146.27 16.6328H149.797C149.797 18.5156 150.922 19.457 153.172 19.457C154.008 19.457 154.66 19.2891 155.129 18.9531C155.598 18.6094 155.832 18.1328 155.832 17.5234ZM174.594 7.78516H169.367V22H165.852V7.78516H160.695V4.9375H174.594V7.78516Z" fill="white"/>
</g>
<defs>
<linearGradient id="paint0_linear" x1="19.8695" y1="-3.42211" x2="4.54222" y2="13.9128" gradientUnits="userSpaceOnUse">
<stop stop-color="white"/>
<stop offset="1" stop-color="white"/>
</linearGradient>
</defs>
</svg>
