<svg width="43" height="43" viewBox="0 0 43 43" fill="none" xmlns="http://www.w3.org/2000/svg">
<path d="M28.6668 5.375H1.79175V28.6667H28.6668V5.375Z" stroke="#377DFF" stroke-width="2" stroke-linecap="round" stroke-linejoin="round"/>
<path d="M28.6667 14.3333H35.8334L41.2084 19.7083V28.6666H28.6667V14.3333Z" stroke="#377DFF" stroke-width="2" stroke-linecap="round" stroke-linejoin="round"/>
<path d="M9.85417 37.625C12.3279 37.625 14.3333 35.6196 14.3333 33.1459C14.3333 30.6721 12.3279 28.6667 9.85417 28.6667C7.38039 28.6667 5.375 30.6721 5.375 33.1459C5.375 35.6196 7.38039 37.625 9.85417 37.625Z" stroke="#377DFF" stroke-width="2" stroke-linecap="round" stroke-linejoin="round"/>
<path d="M33.1459 37.625C35.6197 37.625 37.6251 35.6196 37.6251 33.1459C37.6251 30.6721 35.6197 28.6667 33.1459 28.6667C30.6721 28.6667 28.6667 30.6721 28.6667 33.1459C28.6667 35.6196 30.6721 37.625 33.1459 37.625Z" stroke="#377DFF" stroke-width="2" stroke-linecap="round" stroke-linejoin="round"/>
</svg>
